<?xml version="1.0" encoding="UTF-8" standalone="no"?>
<!DOCTYPE svg PUBLIC "-//W3C//DTD SVG 1.1//EN"
 "http://www.w3.org/Graphics/SVG/1.1/DTD/svg11.dtd">
<!-- Generated by graphviz version 5.0.0 (20220707.1540)
 -->
<!-- Title: dependencies Pages: 1 -->
<svg width="322pt" height="174pt"
 viewBox="0.00 0.00 322.00 173.80" xmlns="http://www.w3.org/2000/svg" xmlns:xlink="http://www.w3.org/1999/xlink">
<g id="graph0" class="graph" transform="scale(1 1) rotate(0) translate(4 169.8)">
<title>dependencies</title>
<polygon fill="white" stroke="transparent" points="-4,4 -4,-169.8 318,-169.8 318,4 -4,4"/>
<text text-anchor="middle" x="157" y="-8.2" font-family="sans-serif" font-size="14.00">dependencies</text>
<g id="clust1" class="cluster">
<title>cluster_FavoriteModule</title>
<polygon fill="none" stroke="black" stroke-dasharray="1,5" points="8,-32.8 8,-157.8 306,-157.8 306,-32.8 8,-32.8"/>
</g>
<g id="clust3" class="cluster">
<title>cluster_FavoriteModule_imports</title>
<polygon fill="none" stroke="black" points="184,-40.8 184,-92.8 298,-92.8 298,-40.8 184,-40.8"/>
</g>
<g id="clust6" class="cluster">
<title>cluster_FavoriteModule_providers</title>
<polygon fill="none" stroke="black" points="16,-40.8 16,-92.8 176,-92.8 176,-40.8 16,-40.8"/>
</g>
<!-- PrismaModule -->
<g id="node1" class="node">
<title>PrismaModule</title>
<polygon fill="#8dd3c7" stroke="black" points="290.44,-84.8 287.44,-88.8 266.44,-88.8 263.44,-84.8 191.56,-84.8 191.56,-48.8 290.44,-48.8 290.44,-84.8"/>
<text text-anchor="middle" x="241" y="-62.6" font-family="Times,serif" font-size="14.00">PrismaModule</text>
</g>
<!-- FavoriteModule -->
<g id="node2" class="node">
<title>FavoriteModule</title>
<polygon fill="#8dd3c7" stroke="black" points="221.21,-149.8 218.21,-153.8 197.21,-153.8 194.21,-149.8 114.79,-149.8 114.79,-113.8 221.21,-113.8 221.21,-149.8"/>
<text text-anchor="middle" x="168" y="-127.6" font-family="Times,serif" font-size="14.00">FavoriteModule</text>
</g>
<!-- PrismaModule&#45;&gt;FavoriteModule -->
<g id="edge1" class="edge">
<title>PrismaModule&#45;&gt;FavoriteModule</title>
<path fill="none" stroke="black" d="M206.44,-84.91C206.44,-84.91 206.44,-103.79 206.44,-103.79"/>
<polygon fill="black" stroke="black" points="202.94,-103.79 206.44,-113.79 209.94,-103.79 202.94,-103.79"/>
</g>
<!-- FavoriteService -->
<g id="node3" class="node">
<title>FavoriteService</title>
<ellipse fill="#fdb462" stroke="black" cx="96" cy="-66.8" rx="72.35" ry="18"/>
<text text-anchor="middle" x="96" y="-62.6" font-family="Times,serif" font-size="14.00">FavoriteService</text>
</g>
<!-- FavoriteService&#45;&gt;FavoriteModule -->
<g id="edge2" class="edge">
<title>FavoriteService&#45;&gt;FavoriteModule</title>
<path fill="none" stroke="black" d="M141.54,-80.9C141.54,-80.9 141.54,-103.52 141.54,-103.52"/>
<polygon fill="black" stroke="black" points="138.04,-103.52 141.54,-113.52 145.04,-103.52 138.04,-103.52"/>
</g>
</g>
</svg>
