<?xml version="1.0" encoding="UTF-8" standalone="no"?>
<!DOCTYPE svg PUBLIC "-//W3C//DTD SVG 1.1//EN"
 "http://www.w3.org/Graphics/SVG/1.1/DTD/svg11.dtd">
<!-- Generated by graphviz version 5.0.0 (20220707.1540)
 -->
<!-- Title: dependencies Pages: 1 -->
<svg width="971pt" height="174pt"
 viewBox="0.00 0.00 971.00 173.80" xmlns="http://www.w3.org/2000/svg" xmlns:xlink="http://www.w3.org/1999/xlink">
<g id="graph0" class="graph" transform="scale(1 1) rotate(0) translate(4 169.8)">
<title>dependencies</title>
<polygon fill="white" stroke="transparent" points="-4,4 -4,-169.8 967,-169.8 967,4 -4,4"/>
<text text-anchor="middle" x="481.5" y="-8.2" font-family="sans-serif" font-size="14.00">dependencies</text>
<g id="clust1" class="cluster">
<title>cluster_AppModule</title>
<polygon fill="none" stroke="black" stroke-dasharray="1,5" points="8,-32.8 8,-157.8 955,-157.8 955,-32.8 8,-32.8"/>
</g>
<g id="clust3" class="cluster">
<title>cluster_AppModule_imports</title>
<polygon fill="none" stroke="black" points="154,-40.8 154,-92.8 947,-92.8 947,-40.8 154,-40.8"/>
</g>
<g id="clust6" class="cluster">
<title>cluster_AppModule_providers</title>
<polygon fill="none" stroke="black" points="16,-40.8 16,-92.8 146,-92.8 146,-40.8 16,-40.8"/>
</g>
<!-- AuthModule -->
<g id="node1" class="node">
<title>AuthModule</title>
<polygon fill="#8dd3c7" stroke="black" points="938.55,-84.8 935.55,-88.8 914.55,-88.8 911.55,-84.8 851.45,-84.8 851.45,-48.8 938.55,-48.8 938.55,-84.8"/>
<text text-anchor="middle" x="895" y="-62.6" font-family="Times,serif" font-size="14.00">AuthModule</text>
</g>
<!-- AppModule -->
<g id="node8" class="node">
<title>AppModule</title>
<polygon fill="#8dd3c7" stroke="black" points="535.66,-149.8 532.66,-153.8 511.66,-153.8 508.66,-149.8 452.34,-149.8 452.34,-113.8 535.66,-113.8 535.66,-149.8"/>
<text text-anchor="middle" x="494" y="-127.6" font-family="Times,serif" font-size="14.00">AppModule</text>
</g>
<!-- AuthModule&#45;&gt;AppModule -->
<g id="edge1" class="edge">
<title>AuthModule&#45;&gt;AppModule</title>
<path fill="none" stroke="black" d="M895,-85.09C895,-107.01 895,-140.8 895,-140.8 895,-140.8 545.78,-140.8 545.78,-140.8"/>
<polygon fill="black" stroke="black" points="545.78,-137.3 535.78,-140.8 545.78,-144.3 545.78,-137.3"/>
</g>
<!-- FavoriteModule -->
<g id="node2" class="node">
<title>FavoriteModule</title>
<polygon fill="#8dd3c7" stroke="black" points="833.21,-84.8 830.21,-88.8 809.21,-88.8 806.21,-84.8 726.79,-84.8 726.79,-48.8 833.21,-48.8 833.21,-84.8"/>
<text text-anchor="middle" x="780" y="-62.6" font-family="Times,serif" font-size="14.00">FavoriteModule</text>
</g>
<!-- FavoriteModule&#45;&gt;AppModule -->
<g id="edge2" class="edge">
<title>FavoriteModule&#45;&gt;AppModule</title>
<path fill="none" stroke="black" d="M780,-84.91C780,-104.14 780,-131.8 780,-131.8 780,-131.8 545.89,-131.8 545.89,-131.8"/>
<polygon fill="black" stroke="black" points="545.89,-128.3 535.89,-131.8 545.89,-135.3 545.89,-128.3"/>
</g>
<!-- GameModule -->
<g id="node3" class="node">
<title>GameModule</title>
<polygon fill="#8dd3c7" stroke="black" points="708.48,-84.8 705.48,-88.8 684.48,-88.8 681.48,-84.8 615.52,-84.8 615.52,-48.8 708.48,-48.8 708.48,-84.8"/>
<text text-anchor="middle" x="662" y="-62.6" font-family="Times,serif" font-size="14.00">GameModule</text>
</g>
<!-- GameModule&#45;&gt;AppModule -->
<g id="edge3" class="edge">
<title>GameModule&#45;&gt;AppModule</title>
<path fill="none" stroke="black" d="M662,-84.83C662,-101.2 662,-122.8 662,-122.8 662,-122.8 545.96,-122.8 545.96,-122.8"/>
<polygon fill="black" stroke="black" points="545.96,-119.3 535.96,-122.8 545.96,-126.3 545.96,-119.3"/>
</g>
<!-- GenreModule -->
<g id="node4" class="node">
<title>GenreModule</title>
<polygon fill="#8dd3c7" stroke="black" points="597.75,-84.8 594.75,-88.8 573.75,-88.8 570.75,-84.8 504.25,-84.8 504.25,-48.8 597.75,-48.8 597.75,-84.8"/>
<text text-anchor="middle" x="551" y="-62.6" font-family="Times,serif" font-size="14.00">GenreModule</text>
</g>
<!-- GenreModule&#45;&gt;AppModule -->
<g id="edge4" class="edge">
<title>GenreModule&#45;&gt;AppModule</title>
<path fill="none" stroke="black" d="M519.98,-84.91C519.98,-84.91 519.98,-103.79 519.98,-103.79"/>
<polygon fill="black" stroke="black" points="516.48,-103.79 519.98,-113.79 523.48,-103.79 516.48,-103.79"/>
</g>
<!-- PrismaModule -->
<g id="node5" class="node">
<title>PrismaModule</title>
<polygon fill="#8dd3c7" stroke="black" points="486.44,-84.8 483.44,-88.8 462.44,-88.8 459.44,-84.8 387.56,-84.8 387.56,-48.8 486.44,-48.8 486.44,-84.8"/>
<text text-anchor="middle" x="437" y="-62.6" font-family="Times,serif" font-size="14.00">PrismaModule</text>
</g>
<!-- PrismaModule&#45;&gt;AppModule -->
<g id="edge5" class="edge">
<title>PrismaModule&#45;&gt;AppModule</title>
<path fill="none" stroke="black" d="M469.19,-84.91C469.19,-84.91 469.19,-103.79 469.19,-103.79"/>
<polygon fill="black" stroke="black" points="465.69,-103.79 469.19,-113.79 472.69,-103.79 465.69,-103.79"/>
</g>
<!-- ProfileModule -->
<g id="node6" class="node">
<title>ProfileModule</title>
<polygon fill="#8dd3c7" stroke="black" points="369.66,-84.8 366.66,-88.8 345.66,-88.8 342.66,-84.8 272.34,-84.8 272.34,-48.8 369.66,-48.8 369.66,-84.8"/>
<text text-anchor="middle" x="321" y="-62.6" font-family="Times,serif" font-size="14.00">ProfileModule</text>
</g>
<!-- ProfileModule&#45;&gt;AppModule -->
<g id="edge6" class="edge">
<title>ProfileModule&#45;&gt;AppModule</title>
<path fill="none" stroke="black" d="M321,-84.83C321,-101.2 321,-122.8 321,-122.8 321,-122.8 442.12,-122.8 442.12,-122.8"/>
<polygon fill="black" stroke="black" points="442.12,-126.3 452.12,-122.8 442.12,-119.3 442.12,-126.3"/>
</g>
<!-- UsersModule -->
<g id="node7" class="node">
<title>UsersModule</title>
<polygon fill="#8dd3c7" stroke="black" points="253.94,-84.8 250.94,-88.8 229.94,-88.8 226.94,-84.8 162.06,-84.8 162.06,-48.8 253.94,-48.8 253.94,-84.8"/>
<text text-anchor="middle" x="208" y="-62.6" font-family="Times,serif" font-size="14.00">UsersModule</text>
</g>
<!-- UsersModule&#45;&gt;AppModule -->
<g id="edge7" class="edge">
<title>UsersModule&#45;&gt;AppModule</title>
<path fill="none" stroke="black" d="M208,-84.91C208,-104.14 208,-131.8 208,-131.8 208,-131.8 442.11,-131.8 442.11,-131.8"/>
<polygon fill="black" stroke="black" points="442.11,-135.3 452.11,-131.8 442.11,-128.3 442.11,-135.3"/>
</g>
<!-- AppService -->
<g id="node9" class="node">
<title>AppService</title>
<ellipse fill="#fdb462" stroke="black" cx="81" cy="-66.8" rx="56.75" ry="18"/>
<text text-anchor="middle" x="81" y="-62.6" font-family="Times,serif" font-size="14.00">AppService</text>
</g>
<!-- AppService&#45;&gt;AppModule -->
<g id="edge8" class="edge">
<title>AppService&#45;&gt;AppModule</title>
<path fill="none" stroke="black" d="M81,-85.09C81,-107.01 81,-140.8 81,-140.8 81,-140.8 442.13,-140.8 442.13,-140.8"/>
<polygon fill="black" stroke="black" points="442.13,-144.3 452.13,-140.8 442.13,-137.3 442.13,-144.3"/>
</g>
</g>
</svg>
