<?xml version="1.0" encoding="UTF-8" standalone="no"?>
<!DOCTYPE svg PUBLIC "-//W3C//DTD SVG 1.1//EN"
 "http://www.w3.org/Graphics/SVG/1.1/DTD/svg11.dtd">
<!-- Generated by graphviz version 5.0.0 (20220707.1540)
 -->
<!-- Title: dependencies Pages: 1 -->
<svg width="2309pt" height="250pt"
 viewBox="0.00 0.00 2309.00 249.80" xmlns="http://www.w3.org/2000/svg" xmlns:xlink="http://www.w3.org/1999/xlink">
<g id="graph0" class="graph" transform="scale(1 1) rotate(0) translate(4 245.8)">
<title>dependencies</title>
<polygon fill="white" stroke="transparent" points="-4,4 -4,-245.8 2305,-245.8 2305,4 -4,4"/>
<text text-anchor="middle" x="1150.5" y="-8.2" font-family="sans-serif" font-size="14.00">dependencies</text>
<g id="clust1" class="cluster">
<title>cluster_AppModule</title>
<polygon fill="none" stroke="black" stroke-dasharray="1,5" points="1152,-32.8 1152,-233.8 1995,-233.8 1995,-32.8 1152,-32.8"/>
</g>
<g id="clust3" class="cluster">
<title>cluster_AppModule_imports</title>
<polygon fill="none" stroke="black" points="1298,-40.8 1298,-168.8 1975,-168.8 1975,-40.8 1298,-40.8"/>
</g>
<g id="clust6" class="cluster">
<title>cluster_AppModule_providers</title>
<polygon fill="none" stroke="black" points="1160,-116.8 1160,-168.8 1290,-168.8 1290,-116.8 1160,-116.8"/>
</g>
<g id="clust7" class="cluster">
<title>cluster_AuthModule</title>
<polygon fill="none" stroke="black" stroke-dasharray="1,5" points="8,-32.8 8,-100.8 290,-100.8 290,-32.8 8,-32.8"/>
</g>
<g id="clust12" class="cluster">
<title>cluster_AuthModule_providers</title>
<polygon fill="none" stroke="black" points="16,-40.8 16,-92.8 282,-92.8 282,-40.8 16,-40.8"/>
</g>
<g id="clust13" class="cluster">
<title>cluster_FavoriteModule</title>
<polygon fill="none" stroke="black" stroke-dasharray="1,5" points="298,-32.8 298,-100.8 474,-100.8 474,-32.8 298,-32.8"/>
</g>
<g id="clust18" class="cluster">
<title>cluster_FavoriteModule_providers</title>
<polygon fill="none" stroke="black" points="306,-40.8 306,-92.8 466,-92.8 466,-40.8 306,-40.8"/>
</g>
<g id="clust19" class="cluster">
<title>cluster_GameModule</title>
<polygon fill="none" stroke="black" stroke-dasharray="1,5" points="482,-32.8 482,-100.8 640,-100.8 640,-32.8 482,-32.8"/>
</g>
<g id="clust24" class="cluster">
<title>cluster_GameModule_providers</title>
<polygon fill="none" stroke="black" points="490,-40.8 490,-92.8 632,-92.8 632,-40.8 490,-40.8"/>
</g>
<g id="clust25" class="cluster">
<title>cluster_GenreModule</title>
<polygon fill="none" stroke="black" stroke-dasharray="1,5" points="648,-32.8 648,-100.8 808,-100.8 808,-32.8 648,-32.8"/>
</g>
<g id="clust30" class="cluster">
<title>cluster_GenreModule_providers</title>
<polygon fill="none" stroke="black" points="656,-40.8 656,-92.8 800,-92.8 800,-40.8 656,-40.8"/>
</g>
<g id="clust31" class="cluster">
<title>cluster_PrismaModule</title>
<polygon fill="none" stroke="black" stroke-dasharray="1,5" points="2003,-108.8 2003,-176.8 2293,-176.8 2293,-108.8 2003,-108.8"/>
</g>
<g id="clust34" class="cluster">
<title>cluster_PrismaModule_exports</title>
<polygon fill="none" stroke="black" points="2169,-116.8 2169,-168.8 2285,-168.8 2285,-116.8 2169,-116.8"/>
</g>
<g id="clust36" class="cluster">
<title>cluster_PrismaModule_providers</title>
<polygon fill="none" stroke="black" points="2011,-116.8 2011,-168.8 2161,-168.8 2161,-116.8 2011,-116.8"/>
</g>
<g id="clust37" class="cluster">
<title>cluster_ProfileModule</title>
<polygon fill="none" stroke="black" stroke-dasharray="1,5" points="816,-32.8 816,-100.8 980,-100.8 980,-32.8 816,-32.8"/>
</g>
<g id="clust42" class="cluster">
<title>cluster_ProfileModule_providers</title>
<polygon fill="none" stroke="black" points="824,-40.8 824,-92.8 972,-92.8 972,-40.8 824,-40.8"/>
</g>
<g id="clust43" class="cluster">
<title>cluster_UsersModule</title>
<polygon fill="none" stroke="black" stroke-dasharray="1,5" points="988,-32.8 988,-100.8 1144,-100.8 1144,-32.8 988,-32.8"/>
</g>
<g id="clust48" class="cluster">
<title>cluster_UsersModule_providers</title>
<polygon fill="none" stroke="black" points="996,-40.8 996,-92.8 1136,-92.8 1136,-40.8 996,-40.8"/>
</g>
<!-- AuthModule -->
<g id="node1" class="node">
<title>AuthModule</title>
<polygon fill="#8dd3c7" stroke="black" points="1393.55,-160.8 1390.55,-164.8 1369.55,-164.8 1366.55,-160.8 1306.45,-160.8 1306.45,-124.8 1393.55,-124.8 1393.55,-160.8"/>
<text text-anchor="middle" x="1350" y="-138.6" font-family="Times,serif" font-size="14.00">AuthModule</text>
</g>
<!-- AppModule -->
<g id="node8" class="node">
<title>AppModule</title>
<polygon fill="#8dd3c7" stroke="black" points="1679.66,-225.8 1676.66,-229.8 1655.66,-229.8 1652.66,-225.8 1596.34,-225.8 1596.34,-189.8 1679.66,-189.8 1679.66,-225.8"/>
<text text-anchor="middle" x="1638" y="-203.6" font-family="Times,serif" font-size="14.00">AppModule</text>
</g>
<!-- AuthModule&#45;&gt;AppModule -->
<g id="edge1" class="edge">
<title>AuthModule&#45;&gt;AppModule</title>
<path fill="none" stroke="black" d="M1350,-160.91C1350,-180.14 1350,-207.8 1350,-207.8 1350,-207.8 1586.12,-207.8 1586.12,-207.8"/>
<polygon fill="black" stroke="black" points="1586.12,-211.3 1596.12,-207.8 1586.12,-204.3 1586.12,-211.3"/>
</g>
<!-- FavoriteModule -->
<g id="node2" class="node">
<title>FavoriteModule</title>
<polygon fill="#8dd3c7" stroke="black" points="1518.21,-160.8 1515.21,-164.8 1494.21,-164.8 1491.21,-160.8 1411.79,-160.8 1411.79,-124.8 1518.21,-124.8 1518.21,-160.8"/>
<text text-anchor="middle" x="1465" y="-138.6" font-family="Times,serif" font-size="14.00">FavoriteModule</text>
</g>
<!-- FavoriteModule&#45;&gt;AppModule -->
<g id="edge2" class="edge">
<title>FavoriteModule&#45;&gt;AppModule</title>
<path fill="none" stroke="black" d="M1465,-160.83C1465,-177.2 1465,-198.8 1465,-198.8 1465,-198.8 1586.12,-198.8 1586.12,-198.8"/>
<polygon fill="black" stroke="black" points="1586.12,-202.3 1596.12,-198.8 1586.12,-195.3 1586.12,-202.3"/>
</g>
<!-- GameModule -->
<g id="node3" class="node">
<title>GameModule</title>
<polygon fill="#8dd3c7" stroke="black" points="1629.48,-160.8 1626.48,-164.8 1605.48,-164.8 1602.48,-160.8 1536.52,-160.8 1536.52,-124.8 1629.48,-124.8 1629.48,-160.8"/>
<text text-anchor="middle" x="1583" y="-138.6" font-family="Times,serif" font-size="14.00">GameModule</text>
</g>
<!-- GameModule&#45;&gt;AppModule -->
<g id="edge3" class="edge">
<title>GameModule&#45;&gt;AppModule</title>
<path fill="none" stroke="black" d="M1612.83,-160.91C1612.83,-160.91 1612.83,-179.79 1612.83,-179.79"/>
<polygon fill="black" stroke="black" points="1609.33,-179.79 1612.83,-189.79 1616.33,-179.79 1609.33,-179.79"/>
</g>
<!-- GenreModule -->
<g id="node4" class="node">
<title>GenreModule</title>
<polygon fill="#8dd3c7" stroke="black" points="1740.75,-160.8 1737.75,-164.8 1716.75,-164.8 1713.75,-160.8 1647.25,-160.8 1647.25,-124.8 1740.75,-124.8 1740.75,-160.8"/>
<text text-anchor="middle" x="1694" y="-138.6" font-family="Times,serif" font-size="14.00">GenreModule</text>
</g>
<!-- GenreModule&#45;&gt;AppModule -->
<g id="edge4" class="edge">
<title>GenreModule&#45;&gt;AppModule</title>
<path fill="none" stroke="black" d="M1663.48,-160.91C1663.48,-160.91 1663.48,-179.79 1663.48,-179.79"/>
<polygon fill="black" stroke="black" points="1659.98,-179.79 1663.48,-189.79 1666.98,-179.79 1659.98,-179.79"/>
</g>
<!-- PrismaModule -->
<g id="node5" class="node">
<title>PrismaModule</title>
<polygon fill="#8dd3c7" stroke="black" points="1857.44,-84.8 1854.44,-88.8 1833.44,-88.8 1830.44,-84.8 1758.56,-84.8 1758.56,-48.8 1857.44,-48.8 1857.44,-84.8"/>
<text text-anchor="middle" x="1808" y="-62.6" font-family="Times,serif" font-size="14.00">PrismaModule</text>
</g>
<!-- PrismaModule&#45;&gt;AuthModule -->
<g id="edge9" class="edge">
<title>PrismaModule&#45;&gt;AuthModule</title>
<path fill="none" stroke="black" d="M1758.4,-54.8C1644.09,-54.8 1371.89,-54.8 1371.89,-54.8 1371.89,-54.8 1371.89,-114.57 1371.89,-114.57"/>
<polygon fill="black" stroke="black" points="1368.39,-114.57 1371.89,-124.57 1375.39,-114.57 1368.39,-114.57"/>
</g>
<!-- PrismaModule&#45;&gt;FavoriteModule -->
<g id="edge12" class="edge">
<title>PrismaModule&#45;&gt;FavoriteModule</title>
<path fill="none" stroke="black" d="M1758.59,-60.8C1667.59,-60.8 1482.7,-60.8 1482.7,-60.8 1482.7,-60.8 1482.7,-114.6 1482.7,-114.6"/>
<polygon fill="black" stroke="black" points="1479.2,-114.6 1482.7,-124.6 1486.2,-114.6 1479.2,-114.6"/>
</g>
<!-- PrismaModule&#45;&gt;GameModule -->
<g id="edge14" class="edge">
<title>PrismaModule&#45;&gt;GameModule</title>
<path fill="none" stroke="black" d="M1758.62,-66.8C1696.68,-66.8 1598.5,-66.8 1598.5,-66.8 1598.5,-66.8 1598.5,-114.79 1598.5,-114.79"/>
<polygon fill="black" stroke="black" points="1595,-114.79 1598.5,-124.79 1602,-114.79 1595,-114.79"/>
</g>
<!-- PrismaModule&#45;&gt;GenreModule -->
<g id="edge16" class="edge">
<title>PrismaModule&#45;&gt;GenreModule</title>
<path fill="none" stroke="black" d="M1758.52,-78.8C1734.03,-78.8 1709.63,-78.8 1709.63,-78.8 1709.63,-78.8 1709.63,-114.63 1709.63,-114.63"/>
<polygon fill="black" stroke="black" points="1706.13,-114.63 1709.63,-124.63 1713.13,-114.63 1706.13,-114.63"/>
</g>
<!-- ProfileModule -->
<g id="node6" class="node">
<title>ProfileModule</title>
<polygon fill="#8dd3c7" stroke="black" points="1856.66,-160.8 1853.66,-164.8 1832.66,-164.8 1829.66,-160.8 1759.34,-160.8 1759.34,-124.8 1856.66,-124.8 1856.66,-160.8"/>
<text text-anchor="middle" x="1808" y="-138.6" font-family="Times,serif" font-size="14.00">ProfileModule</text>
</g>
<!-- PrismaModule&#45;&gt;ProfileModule -->
<g id="edge20" class="edge">
<title>PrismaModule&#45;&gt;ProfileModule</title>
<path fill="none" stroke="black" d="M1824.28,-84.81C1824.28,-84.81 1824.28,-114.65 1824.28,-114.65"/>
<polygon fill="black" stroke="black" points="1820.78,-114.65 1824.28,-124.65 1827.78,-114.65 1820.78,-114.65"/>
</g>
<!-- UsersModule -->
<g id="node7" class="node">
<title>UsersModule</title>
<polygon fill="#8dd3c7" stroke="black" points="1966.94,-160.8 1963.94,-164.8 1942.94,-164.8 1939.94,-160.8 1875.06,-160.8 1875.06,-124.8 1966.94,-124.8 1966.94,-160.8"/>
<text text-anchor="middle" x="1921" y="-138.6" font-family="Times,serif" font-size="14.00">UsersModule</text>
</g>
<!-- PrismaModule&#45;&gt;UsersModule -->
<g id="edge22" class="edge">
<title>PrismaModule&#45;&gt;UsersModule</title>
<path fill="none" stroke="black" d="M1857.58,-75.8C1893.67,-75.8 1936.24,-75.8 1936.24,-75.8 1936.24,-75.8 1936.24,-114.49 1936.24,-114.49"/>
<polygon fill="black" stroke="black" points="1932.74,-114.49 1936.24,-124.49 1939.74,-114.49 1932.74,-114.49"/>
</g>
<!-- PrismaModule&#45;&gt;AppModule -->
<g id="edge5" class="edge">
<title>PrismaModule&#45;&gt;AppModule</title>
<path fill="none" stroke="black" d="M1758.46,-72.8C1708.37,-72.8 1638.31,-72.8 1638.31,-72.8 1638.31,-72.8 1638.31,-179.59 1638.31,-179.59"/>
<polygon fill="black" stroke="black" points="1634.81,-179.59 1638.31,-189.59 1641.81,-179.59 1634.81,-179.59"/>
</g>
<!-- PrismaService  -->
<g id="node15" class="node">
<title>PrismaService </title>
<polygon fill="#fb8072" stroke="black" points="2277.37,-160.8 2176.63,-160.8 2176.63,-124.8 2277.37,-124.8 2277.37,-160.8"/>
<text text-anchor="middle" x="2227" y="-138.6" font-family="Times,serif" font-size="14.00">PrismaService </text>
</g>
<!-- PrismaModule&#45;&gt;PrismaService  -->
<g id="edge18" class="edge">
<title>PrismaModule&#45;&gt;PrismaService </title>
<path fill="none" stroke="black" stroke-dasharray="5,2" d="M1857.3,-57.8C1968.06,-57.8 2227,-57.8 2227,-57.8 2227,-57.8 2227,-114.77 2227,-114.77"/>
<polygon fill="black" stroke="black" points="2223.5,-114.77 2227,-124.77 2230.5,-114.77 2223.5,-114.77"/>
</g>
<!-- ProfileModule&#45;&gt;AppModule -->
<g id="edge6" class="edge">
<title>ProfileModule&#45;&gt;AppModule</title>
<path fill="none" stroke="black" d="M1808,-160.82C1808,-178.17 1808,-201.8 1808,-201.8 1808,-201.8 1690.02,-201.8 1690.02,-201.8"/>
<polygon fill="black" stroke="black" points="1690.02,-198.3 1680.02,-201.8 1690.02,-205.3 1690.02,-198.3"/>
</g>
<!-- UsersModule&#45;&gt;AppModule -->
<g id="edge7" class="edge">
<title>UsersModule&#45;&gt;AppModule</title>
<path fill="none" stroke="black" d="M1921,-161.08C1921,-182.12 1921,-213.8 1921,-213.8 1921,-213.8 1689.76,-213.8 1689.76,-213.8"/>
<polygon fill="black" stroke="black" points="1689.76,-210.3 1679.76,-213.8 1689.76,-217.3 1689.76,-210.3"/>
</g>
<!-- AppService -->
<g id="node9" class="node">
<title>AppService</title>
<ellipse fill="#fdb462" stroke="black" cx="1225" cy="-142.8" rx="56.75" ry="18"/>
<text text-anchor="middle" x="1225" y="-138.6" font-family="Times,serif" font-size="14.00">AppService</text>
</g>
<!-- AppService&#45;&gt;AppModule -->
<g id="edge8" class="edge">
<title>AppService&#45;&gt;AppModule</title>
<path fill="none" stroke="black" d="M1225,-161.09C1225,-183.01 1225,-216.8 1225,-216.8 1225,-216.8 1586.13,-216.8 1586.13,-216.8"/>
<polygon fill="black" stroke="black" points="1586.13,-220.3 1596.13,-216.8 1586.13,-213.3 1586.13,-220.3"/>
</g>
<!-- AuthService -->
<g id="node10" class="node">
<title>AuthService</title>
<ellipse fill="#fdb462" stroke="black" cx="215" cy="-66.8" rx="59.11" ry="18"/>
<text text-anchor="middle" x="215" y="-62.6" font-family="Times,serif" font-size="14.00">AuthService</text>
</g>
<!-- AuthService&#45;&gt;AuthModule -->
<g id="edge10" class="edge">
<title>AuthService&#45;&gt;AuthModule</title>
<path fill="none" stroke="black" d="M215,-84.95C215,-98.54 215,-114.8 215,-114.8 215,-114.8 1350,-114.8 1350,-114.8 1350,-114.8 1350,-115.78 1350,-115.78"/>
<polygon fill="black" stroke="black" points="1346.5,-114.59 1350,-124.59 1353.5,-114.59 1346.5,-114.59"/>
</g>
<!-- JwtStrategy -->
<g id="node11" class="node">
<title>JwtStrategy</title>
<ellipse fill="#fdb462" stroke="black" cx="81" cy="-66.8" rx="56.77" ry="18"/>
<text text-anchor="middle" x="81" y="-62.6" font-family="Times,serif" font-size="14.00">JwtStrategy</text>
</g>
<!-- JwtStrategy&#45;&gt;AuthModule -->
<g id="edge11" class="edge">
<title>JwtStrategy&#45;&gt;AuthModule</title>
<path fill="none" stroke="black" d="M81,-85.04C81,-100.37 81,-119.8 81,-119.8 81,-119.8 1328.11,-119.8 1328.11,-119.8 1328.11,-119.8 1328.11,-120.29 1328.11,-120.29"/>
<polygon fill="black" stroke="black" points="1324.61,-114.68 1328.11,-124.68 1331.61,-114.68 1324.61,-114.68"/>
</g>
<!-- FavoriteService -->
<g id="node12" class="node">
<title>FavoriteService</title>
<ellipse fill="#fdb462" stroke="black" cx="386" cy="-66.8" rx="72.35" ry="18"/>
<text text-anchor="middle" x="386" y="-62.6" font-family="Times,serif" font-size="14.00">FavoriteService</text>
</g>
<!-- FavoriteService&#45;&gt;FavoriteModule -->
<g id="edge13" class="edge">
<title>FavoriteService&#45;&gt;FavoriteModule</title>
<path fill="none" stroke="black" d="M386,-85.29C386,-96.94 386,-109.8 386,-109.8 386,-109.8 1447.3,-109.8 1447.3,-109.8 1447.3,-109.8 1447.3,-114.76 1447.3,-114.76"/>
<polygon fill="black" stroke="black" points="1443.8,-114.76 1447.3,-124.76 1450.8,-114.76 1443.8,-114.76"/>
</g>
<!-- GameService -->
<g id="node13" class="node">
<title>GameService</title>
<ellipse fill="#fdb462" stroke="black" cx="561" cy="-66.8" rx="63.1" ry="18"/>
<text text-anchor="middle" x="561" y="-62.6" font-family="Times,serif" font-size="14.00">GameService</text>
</g>
<!-- GameService&#45;&gt;GameModule -->
<g id="edge15" class="edge">
<title>GameService&#45;&gt;GameModule</title>
<path fill="none" stroke="black" d="M561,-84.91C561,-94.7 561,-104.8 561,-104.8 561,-104.8 1567.5,-104.8 1567.5,-104.8 1567.5,-104.8 1567.5,-114.69 1567.5,-114.69"/>
<polygon fill="black" stroke="black" points="1564,-114.69 1567.5,-124.69 1571,-114.69 1564,-114.69"/>
</g>
<!-- GenreService -->
<g id="node14" class="node">
<title>GenreService</title>
<ellipse fill="#fdb462" stroke="black" cx="728" cy="-66.8" rx="63.67" ry="18"/>
<text text-anchor="middle" x="728" y="-62.6" font-family="Times,serif" font-size="14.00">GenreService</text>
</g>
<!-- GenreService&#45;&gt;GenreModule -->
<g id="edge17" class="edge">
<title>GenreService&#45;&gt;GenreModule</title>
<path fill="none" stroke="black" d="M728,-84.84C728,-92.55 728,-99.8 728,-99.8 728,-99.8 1678.37,-99.8 1678.37,-99.8 1678.37,-99.8 1678.37,-114.31 1678.37,-114.31"/>
<polygon fill="black" stroke="black" points="1674.87,-114.31 1678.37,-124.31 1681.87,-114.31 1674.87,-114.31"/>
</g>
<!-- PrismaService -->
<g id="node16" class="node">
<title>PrismaService</title>
<ellipse fill="#fdb462" stroke="black" cx="2086" cy="-142.8" rx="66.64" ry="18"/>
<text text-anchor="middle" x="2086" y="-138.6" font-family="Times,serif" font-size="14.00">PrismaService</text>
</g>
<!-- PrismaService&#45;&gt;PrismaModule -->
<g id="edge19" class="edge">
<title>PrismaService&#45;&gt;PrismaModule</title>
<path fill="none" stroke="black" d="M2086,-124.79C2086,-102.31 2086,-66.8 2086,-66.8 2086,-66.8 1867.38,-66.8 1867.38,-66.8"/>
<polygon fill="black" stroke="black" points="1867.38,-63.3 1857.38,-66.8 1867.38,-70.3 1867.38,-63.3"/>
</g>
<!-- ProfileService -->
<g id="node17" class="node">
<title>ProfileService</title>
<ellipse fill="#fdb462" stroke="black" cx="898" cy="-66.8" rx="66.05" ry="18"/>
<text text-anchor="middle" x="898" y="-62.6" font-family="Times,serif" font-size="14.00">ProfileService</text>
</g>
<!-- ProfileService&#45;&gt;ProfileModule -->
<g id="edge21" class="edge">
<title>ProfileService&#45;&gt;ProfileModule</title>
<path fill="none" stroke="black" d="M898,-85.01C898,-90.35 898,-94.8 898,-94.8 898,-94.8 1791.72,-94.8 1791.72,-94.8 1791.72,-94.8 1791.72,-114.65 1791.72,-114.65"/>
<polygon fill="black" stroke="black" points="1788.22,-114.65 1791.72,-124.65 1795.22,-114.65 1788.22,-114.65"/>
</g>
<!-- UsersService -->
<g id="node18" class="node">
<title>UsersService</title>
<ellipse fill="#fdb462" stroke="black" cx="1066" cy="-66.8" rx="61.97" ry="18"/>
<text text-anchor="middle" x="1066" y="-62.6" font-family="Times,serif" font-size="14.00">UsersService</text>
</g>
<!-- UsersService&#45;&gt;UsersModule -->
<g id="edge23" class="edge">
<title>UsersService&#45;&gt;UsersModule</title>
<path fill="none" stroke="black" d="M1066,-84.92C1066,-87.77 1066,-89.8 1066,-89.8 1066,-89.8 1905.76,-89.8 1905.76,-89.8 1905.76,-89.8 1905.76,-114.56 1905.76,-114.56"/>
<polygon fill="black" stroke="black" points="1902.26,-114.56 1905.76,-124.56 1909.26,-114.56 1902.26,-114.56"/>
</g>
</g>
</svg>
